{
  "accessors": [
    {
      "bufferView": 1,
      "componentType": 5126,
      "count": 394,
      "max": [
        30.818000793457031,
        -8.8751001358032227,
        3
      ],
      "min": [
        17,
        -11.97599983215332,
        -0.82300001382827759
      ],
      "type": "VEC3"
    },
    {
      "bufferView": 1,
      "byteOffset": 4728,
      "componentType": 5126,
      "count": 394,
      "max": [
        0.98360812664031982,
        0.97787737846374512,
        0.99978739023208618
      ],
      "min": [
        -0.98777788877487183,
        -0.98332667350769043,
        -0.99992293119430542
      ],
      "type": "VEC3"
    },
    {
      "bufferView": 0,
      "componentType": 5125,
      "count": 1188,
      "max": [
        393
      ],
      "min": [
        0
      ],
      "type": "SCALAR"
    },
    {
      "bufferView": 1,
      "byteOffset": 9456,
      "componentType": 5126,
      "count": 1935,
      "max": [
        29.548000335693359,
        -0,
        3
      ],
      "min": [
        18.643800735473633,
        -9.2119998931884766,
        -0.65950000286102295
      ],
      "type": "VEC3"
    },
    {
      "bufferView": 1,
      "byteOffset": 32676,
      "componentType": 5126,
      "count": 1935,
      "max": [
        0.95942378044128418,
        1,
        0.9952736496925354
      ],
      "min": [
        -0.9602617621421814,
        -1,
        -0.99934160709381104
      ],
      "type": "VEC3"
    },
    {
      "bufferView": 0,
      "byteOffset": 4752,
      "componentType": 5125,
      "count": 6696,
      "max": [
        1934
      ],
      "min": [
        0
      ],
      "type": "SCALAR"
    }
  ],
  "asset": {
    "extras": {
      "author": "Shylaaa (https://sketchfab.com/Shylaaa)",
      "license": "CC-BY-4.0 (http://creativecommons.org/licenses/by/4.0/)",
      "source": "https://sketchfab.com/3d-models/sharks-tooth-2-2ef96f789a4741c1be57f5edca49984e",
      "title": "Sharks tooth 2"
    },
    "generator": "Sketchfab-9.55.0",
    "version": "2.0"
  },
  "bufferViews": [
    {
      "buffer": 0,
      "byteLength": 31536,
      "byteOffset": 0,
      "name": "floatBufferViews",
      "target": 34963
    },
    {
      "buffer": 0,
      "byteLength": 55896,
      "byteOffset": 31536,
      "byteStride": 12,
      "name": "floatBufferViews",
      "target": 34962
    }
  ],
  "buffers": [
    {
      "byteLength": 87432,
      "uri": "scene.bin"
    }
  ],
  "materials": [
    {
      "doubleSided": true,
      "emissiveFactor": [
        0,
        0,
        0
      ],
      "name": "color_2829873",
      "pbrMetallicRoughness": {
        "baseColorFactor": [
          0.168627,
          0.180392,
          0.19215699999999999,
          1
        ],
        "metallicFactor": 0,
        "roughnessFactor": 1
      }
    },
    {
      "doubleSided": true,
      "emissiveFactor": [
        0,
        0,
        0
      ],
      "name": "color_6383466",
      "pbrMetallicRoughness": {
        "baseColorFactor": [
          0.38039200000000001,
          0.403922,
          0.415686,
          1
        ],
        "metallicFactor": 0,
        "roughnessFactor": 1
      }
    }
  ],
  "meshes": [
    {
      "primitives": [
        {
          "attributes": {
            "NORMAL": 1,
            "POSITION": 0
          },
          "indices": 2,
          "material": 0,
          "mode": 4
        }
      ]
    },
    {
      "primitives": [
        {
          "attributes": {
            "NORMAL": 4,
            "POSITION": 3
          },
          "indices": 5,
          "material": 1,
          "mode": 4
        }
      ]
    }
  ],
  "nodes": [
    {
      "children": [
        1
      ],
      "name": "RootNode (gltf orientation matrix)",
      "rotation": [
        -0.70710678118654746,
        -0,
        -0,
        0.70710678118654757
      ]
    },
    {
      "children": [
        2
      ],
      "matrix": [
        1,
        0,
        0,
        0,
        0,
        2.2204460492503131e-16,
        -1,
        0,
        0,
        1,
        2.2204460492503131e-16,
        0,
        0,
        -7.076474666595459,
        -4.8994898796081543,
        1
      ],
      "name": "RootNode (model correction matrix)"
    },
    {
      "children": [
        3,
        4
      ],
      "name": "tinker.obj.cleaner.materialmerger.gles"
    },
    {
      "mesh": 0,
      "name": ""
    },
    {
      "mesh": 1,
      "name": ""
    }
  ],
  "scene": 0,
  "scenes": [
    {
      "name": "OSG_Scene",
      "nodes": [
        0
      ]
    }
  ]
}

