{
  "accessors": [
    {
      "bufferView": 1,
      "componentType": 5126,
      "count": 359,
      "max": [
        30.818000793457031,
        -27.86039924621582,
        3
      ],
      "min": [
        -12.555000305175781,
        -37.590000152587891,
        -9
      ],
      "type": "VEC3"
    },
    {
      "bufferView": 1,
      "byteOffset": 4308,
      "componentType": 5126,
      "count": 359,
      "max": [
        0.98350620269775391,
        0.97764688730239868,
        0.99976712465286255
      ],
      "min": [
        -0.98346620798110962,
        -0.98328018188476562,
        -1
      ],
      "type": "VEC3"
    },
    {
      "bufferView": 0,
      "componentType": 5125,
      "count": 1131,
      "max": [
        358
      ],
      "min": [
        0
      ],
      "type": "SCALAR"
    },
    {
      "bufferView": 1,
      "byteOffset": 8616,
      "componentType": 5126,
      "count": 1893,
      "max": [
        26.830999374389648,
        -0,
        3
      ],
      "min": [
        -7.3966999053955078,
        -28.916000366210938,
        -8.4876003265380859
      ],
      "type": "VEC3"
    },
    {
      "bufferView": 1,
      "byteOffset": 31332,
      "componentType": 5126,
      "count": 1893,
      "max": [
        0.95909887552261353,
        1,
        0.99534487724304199
      ],
      "min": [
        -0.95991629362106323,
        -1,
        -0.99923765659332275
      ],
      "type": "VEC3"
    },
    {
      "bufferView": 0,
      "byteOffset": 4524,
      "componentType": 5125,
      "count": 6573,
      "max": [
        1892
      ],
      "min": [
        0
      ],
      "type": "SCALAR"
    }
  ],
  "asset": {
    "extras": {
      "author": "Shylaaa (https://sketchfab.com/Shylaaa)",
      "license": "CC-BY-4.0 (http://creativecommons.org/licenses/by/4.0/)",
      "source": "https://sketchfab.com/3d-models/sharks-tooth-2b86461b5ea8412ab32f5b986f4c7b50",
      "title": "Sharks tooth"
    },
    "generator": "Sketchfab-9.54.0",
    "version": "2.0"
  },
  "bufferViews": [
    {
      "buffer": 0,
      "byteLength": 30816,
      "byteOffset": 0,
      "name": "floatBufferViews",
      "target": 34963
    },
    {
      "buffer": 0,
      "byteLength": 54048,
      "byteOffset": 30816,
      "byteStride": 12,
      "name": "floatBufferViews",
      "target": 34962
    }
  ],
  "buffers": [
    {
      "byteLength": 84864,
      "uri": "scene.bin"
    }
  ],
  "materials": [
    {
      "doubleSided": true,
      "emissiveFactor": [
        0,
        0,
        0
      ],
      "name": "color_2829873",
      "pbrMetallicRoughness": {
        "baseColorFactor": [
          0.168627,
          0.180392,
          0.19215699999999999,
          1
        ],
        "metallicFactor": 0,
        "roughnessFactor": 1
      }
    },
    {
      "doubleSided": true,
      "emissiveFactor": [
        0,
        0,
        0
      ],
      "name": "color_6383466",
      "pbrMetallicRoughness": {
        "baseColorFactor": [
          0.38039200000000001,
          0.403922,
          0.415686,
          1
        ],
        "metallicFactor": 0,
        "roughnessFactor": 1
      }
    }
  ],
  "meshes": [
    {
      "primitives": [
        {
          "attributes": {
            "NORMAL": 1,
            "POSITION": 0
          },
          "indices": 2,
          "material": 0,
          "mode": 4
        }
      ]
    },
    {
      "primitives": [
        {
          "attributes": {
            "NORMAL": 4,
            "POSITION": 3
          },
          "indices": 5,
          "material": 1,
          "mode": 4
        }
      ]
    }
  ],
  "nodes": [
    {
      "children": [
        1
      ],
      "name": "RootNode (gltf orientation matrix)",
      "rotation": [
        -0.70710678118654746,
        -0,
        -0,
        0.70710678118654757
      ]
    },
    {
      "children": [
        2
      ],
      "matrix": [
        1,
        0,
        0,
        0,
        0,
        -2.2204460492503131e-16,
        -1,
        0,
        0,
        1,
        -2.2204460492503131e-16,
        0,
        0,
        -15.794985771179199,
        -21.794973373413086,
        1
      ],
      "name": "RootNode (model correction matrix)"
    },
    {
      "children": [
        3,
        4
      ],
      "name": "tinker.obj.cleaner.materialmerger.gles"
    },
    {
      "mesh": 0,
      "name": ""
    },
    {
      "mesh": 1,
      "name": ""
    }
  ],
  "scene": 0,
  "scenes": [
    {
      "name": "OSG_Scene",
      "nodes": [
        0
      ]
    }
  ]
}

